<svg id="图层_1" data-name="图层 1" xmlns="http://www.w3.org/2000/svg" viewBox="0 0 46 46"><defs><style>.cls-1{fill:#fff;}.cls-2{fill:#f29602;}.cls-3{fill:#fb1868;}.cls-4{fill:#236ce1;}.cls-5{fill:#c81453;}</style></defs><title>默认logo</title><circle class="cls-1" cx="23" cy="23" r="23"/><path class="cls-2" d="M96.78,81c-.26,0-.52,0-.78,0A20,20,0,0,0,76.09,99.27l1.87,9,27.37-10.21,5.35-3.77Z" transform="translate(-73 -78)"/><path class="cls-3" d="M115.63,97.19l-5.37,1.18-23,2.93,7.25,19.62c.5,0,1,.08,1.5.08a20,20,0,0,0,19.63-23.81Z" transform="translate(-73 -78)"/><path class="cls-4" d="M113.65,97.63l-3.9-3.21L76.09,99.27c0,.57-.09,1.14-.09,1.73a20,20,0,0,0,18.5,19.92l-3-18.42Z" transform="translate(-73 -78)"/><path class="cls-5" d="M109.5,86.27A19.89,19.89,0,0,0,96.78,81l10.69,13.75,2.83,3.64,5.36-1.09A20.4,20.4,0,0,0,109.5,86.27Z" transform="translate(-73 -78)"/></svg>