<?xml version="1.0" encoding="UTF-8"?>
<svg width="24px" height="24px" viewBox="0 0 24 24" version="1.1" xmlns="http://www.w3.org/2000/svg" xmlns:xlink="http://www.w3.org/1999/xlink">
    <!-- Generator: Sketch 59.1 (86144) - https://sketch.com -->
    <title>Swap</title>
    <desc>Created with Sketch.</desc>
    <g id="Swap" stroke="none" stroke-width="1" fill="none" fill-rule="evenodd">
        <path d="M13.5121985,3 C13.5121985,2.0865431 14.6360972,1.65127742 15.2513481,2.32645877 L15.2513481,2.32645877 L21.1847167,8.83778591 C21.5567032,9.24600699 21.5273294,9.87849025 21.1191083,10.2504768 C20.7108872,10.6224633 20.0784039,10.5930895 19.7064174,10.1848684 L19.7064174,10.1848684 L15.5121985,5.58209827 L15.5121985,21 C15.5121985,21.5522847 15.0644832,22 14.5121985,22 C13.9599137,22 13.5121985,21.5522847 13.5121985,21 L13.5121985,21 Z M9.44557376,1.99798756 C9.99785851,1.99798756 10.4455738,2.44570281 10.4455738,2.99798756 L10.4455738,2.99798756 L10.4455738,20.9979876 C10.4455738,21.9114445 9.32167499,22.3467101 8.7064241,21.6715288 L8.7064241,21.6715288 L2.77305553,15.1602016 C2.40106898,14.7519806 2.43044286,14.1194973 2.83866395,13.7475108 C3.24688503,13.3755242 3.87936828,13.4048981 4.25135483,13.8131192 L4.25135483,13.8131192 L8.44557376,18.4158893 L8.44557376,2.99798756 C8.44557376,2.44570281 8.89328901,1.99798756 9.44557376,1.99798756 Z" id="Combined-Shape" fill="#FFFFFF" fill-rule="nonzero"></path>
    </g>
</svg>