<?xml version="1.0" encoding="UTF-8"?>
<svg width="64px" height="24px" viewBox="0 0 64 24" version="1.1" xmlns="http://www.w3.org/2000/svg" xmlns:xlink="http://www.w3.org/1999/xlink">
    <!-- Generator: Sketch 59.1 (86144) - https://sketch.com -->
    <title>trade</title>
    <desc>Created with Sketch.</desc>
    <g id="trade" stroke="none" stroke-width="1" fill="none" fill-rule="evenodd">
        <path d="M33,7 L33,18 C33,18.5522847 33.4477153,19 34,19 C34.5522847,19 35,18.5522847 35,18 L35,6 C35,5.44771525 34.5522847,5 34,5 L22,5 C21.4477153,5 21,5.44771525 21,6 C21,6.55228475 21.4477153,7 22,7 L33,7 Z" id="Rectangle" fill="#A1A4B8" fill-rule="nonzero" transform="translate(28.000000, 12.000000) rotate(45.000000) translate(-28.000000, -12.000000) "></path>
        <path d="M50,7 L50,18 C50,18.5522847 50.4477153,19 51,19 C51.5522847,19 52,18.5522847 52,18 L52,6 C52,5.44771525 51.5522847,5 51,5 L39,5 C38.4477153,5 38,5.44771525 38,6 C38,6.55228475 38.4477153,7 39,7 L50,7 Z" id="Rectangle-Copy" fill="#434A73" fill-rule="nonzero" transform="translate(45.000000, 12.000000) rotate(45.000000) translate(-45.000000, -12.000000) "></path>
        <path d="M16,7 L16,18 C16,18.5522847 16.4477153,19 17,19 C17.5522847,19 18,18.5522847 18,18 L18,6 C18,5.44771525 17.5522847,5 17,5 L5,5 C4.44771525,5 4,5.44771525 4,6 C4,6.55228475 4.44771525,7 5,7 L16,7 Z" id="Rectangle-Copy-2" fill="#D9DBE3" fill-rule="nonzero" transform="translate(11.000000, 12.000000) rotate(45.000000) translate(-11.000000, -12.000000) "></path>
    </g>
</svg>