<?xml version="1.0" encoding="UTF-8"?>
<svg width="40px" height="40px" viewBox="0 0 40 40" version="1.1" xmlns="http://www.w3.org/2000/svg" xmlns:xlink="http://www.w3.org/1999/xlink">
    <!-- Generator: Sketch 58 (84663) - https://sketch.com -->
    <title>Artboard</title>
    <desc>Created with Sketch.</desc>
    <g id="Artboard" stroke="none" stroke-width="1" fill="none" fill-rule="evenodd">
        <g id="Group-Copy" transform="translate(20.000000, 20.000000) rotate(38.000000) translate(-20.000000, -20.000000) translate(7.500000, 4.722222)" fill="#FFFFFF" fill-rule="nonzero">
            <path d="M0,2 C-1.3527075e-16,0.8954305 0.8954305,2.02906125e-16 2,0 L19.4444444,0 L22.2222222,2.77777778 L19.4444444,5.55555556 L5.55555556,5.55555556 L5.55555556,16.6666667 L14.6666667,16.6666667 C15.7712362,16.6666667 16.6666667,17.5620972 16.6666667,18.6666667 L16.6666667,20.2222222 C16.6666667,21.3267917 15.7712362,22.2222222 14.6666667,22.2222222 L2,22.2222222 C0.8954305,22.2222222 1.3527075e-16,21.3267917 0,20.2222222 L0,5.55555556 L0,2 Z" id="Combined-Shape"></path>
            <path d="M2.77777778,10.3333333 C2.77777778,9.22876383 3.67320828,8.33333333 4.77777778,8.33333333 L22.2222222,8.33333333 L25,11.1111111 L22.2222222,13.8888889 L8.33333333,13.8888889 L8.33333333,25 L17.4444444,25 C18.5490139,25 19.4444444,25.8954305 19.4444444,27 L19.4444444,28.5555556 C19.4444444,29.6601251 18.5490139,30.5555556 17.4444444,30.5555556 L4.77777778,30.5555556 C3.67320828,30.5555556 2.77777778,29.6601251 2.77777778,28.5555556 L2.77777778,13.8888889 L2.77777778,10.3333333 Z" id="Combined-Shape-Copy" transform="translate(13.888889, 19.444444) scale(-1, -1) translate(-13.888889, -19.444444) "></path>
        </g>
    </g>
</svg>